<?xml version="1.0" encoding="utf-8"?>
<!-- Generator: Adobe Illustrator 26.2.1, SVG Export Plug-In . SVG Version: 6.00 Build 0)  -->
<svg version="1.1" id="Capa_1" xmlns="http://www.w3.org/2000/svg" xmlns:xlink="http://www.w3.org/1999/xlink" x="0px" y="0px"
	 viewBox="0 0 809 239" style="enable-background:new 0 0 809 239;" xml:space="preserve">
<style type="text/css">
	.st0{clip-path:url(#SVGID_00000030460509807448009320000016480554373439778184_);}
	.st1{fill:#636569;}
	.st2{fill:#FF6900;}
</style>
<g>
	<defs>
		<rect id="SVGID_1_" x="3" y="6.4" width="212.2" height="225.5"/>
	</defs>
	<clipPath id="SVGID_00000003789433428893546800000010361373945844643200_">
		<use xlink:href="#SVGID_1_"  style="overflow:visible;"/>
	</clipPath>
	<g style="clip-path:url(#SVGID_00000003789433428893546800000010361373945844643200_);">
		<path class="st1" d="M193.1,125.7l-6.8,3.2l-1.8-37.5l-87-47.6C84.8,36.8,69.3,46.1,70,60.3l1.7,36.9c0,39.9-37.9,49.9-37.9,49.9
			l-3.9-82.8c-2-43.3,45.5-71.8,84.2-50.6l81.4,44.7C222.9,73.4,221.6,112.5,193.1,125.7z"/>
		<path class="st2" d="M104.2,224.8l-81.4-44.7c-27.5-15.1-26.1-54.2,2.3-67.4l6.8-3.2l1.8,37.6l87,47.7
			c12.7,6.9,28.2-2.4,27.6-16.6l-1.7-36.9c0-39.9,37.9-49.9,37.9-49.9l3.9,82.8C190.5,217.4,142.9,246,104.2,224.8z"/>
	</g>
</g>
<path class="st1" d="M341.5,81.7h-15.4l-18.3,29.9l-18.3-29.9h-15.4v67.4h15.4v-39.2l17.4,28.6h1.7l17.4-28.6v39.2h15.4V81.7z"/>
<path class="st1" d="M375.7,150.4c14.1,0,25.5-11.1,25.5-25.4c0-14.3-11.4-25.4-25.5-25.4s-25.5,11.1-25.5,25.4
	C350.2,139.4,361.5,150.4,375.7,150.4z M375.7,136.4c-6.3,0-11.1-4.5-11.1-11.4s4.8-11.4,11.1-11.4c6.3,0,11.1,4.5,11.1,11.4
	S381.9,136.4,375.7,136.4z"/>
<path class="st1" d="M437.5,99.6c-6.4,0-11.2,2.3-13.8,5.9V101h-14.4v48.1h14.4v-26.3c0-6.8,3.7-9.9,8.9-9.9c4.6,0,8.4,2.8,8.4,8.8
	v27.4h14.4v-29.5C455.5,106.6,447.2,99.6,437.5,99.6z"/>
<path class="st1" d="M493.6,114.8V101h-9.9V87.5l-14.4,4.3v9.1h-7.7v13.9h7.7v17c0,13.5,5.5,19.1,24.3,17.2V136
	c-6.4,0.4-9.9,0-9.9-4.1v-17H493.6z"/>
<path class="st2" d="M593.9,111.6h-33.8V125h18c-2.4,6.4-8.3,10.4-17.2,10.4c-13.1,0-21.2-8.4-21.2-19.8c0-11.8,8.5-20.2,19.8-20.2
	c7.6,0,13.7,3.5,16.5,7.9l13.1-7.5c-5.7-9-16.6-15.4-29.4-15.4c-19.8,0-35.3,15.6-35.3,35.1c0,19.3,15.2,34.9,36.4,34.9
	c18.9,0,33.2-12.5,33.2-33.1V111.6z"/>
<path class="st2" d="M616.6,109.5V101h-14.4v48.1h14.4v-21.7c0-9.5,8.5-11.9,14.4-11V100C624.9,100,618.5,103.1,616.6,109.5z"/>
<path class="st2" d="M659.4,150.4c14.1,0,25.5-11.1,25.5-25.4c0-14.3-11.4-25.4-25.5-25.4c-14.1,0-25.5,11.1-25.5,25.4
	C633.9,139.4,645.3,150.4,659.4,150.4z M659.4,136.4c-6.3,0-11.1-4.5-11.1-11.4s4.8-11.4,11.1-11.4c6.3,0,11.1,4.5,11.1,11.4
	S665.7,136.4,659.4,136.4z"/>
<path class="st2" d="M724.2,101v26.3c0,6.8-3.7,9.9-8.9,9.9c-4.6,0-8.4-2.8-8.4-8.8V101h-14.4v29.5c0,13,8.3,19.9,18,19.9
	c6.4,0,11.2-2.3,13.8-5.9v4.5h14.4V101H724.2z"/>
<path class="st2" d="M778,99.6c-6.4,0-11.2,2.2-14.3,5.9V101h-14.4v67.4h14.4v-23.8c3.2,3.7,7.9,5.9,14.3,5.9
	c12.6,0,23-11.1,23-25.4C801,110.7,790.6,99.6,778,99.6z M775.1,136.8c-6.6,0-11.5-4.5-11.5-11.7s4.8-11.7,11.5-11.7
	c6.6,0,11.4,4.5,11.4,11.7S781.7,136.8,775.1,136.8z"/>
</svg>
